<?xml version="1.0" standalone="no"?>
<!DOCTYPE svg PUBLIC "-//W3C//DTD SVG 20010904//EN"
 "http://www.w3.org/TR/2001/REC-SVG-20010904/DTD/svg10.dtd">
<svg version="1.0" xmlns="http://www.w3.org/2000/svg"
 width="650.000000pt" height="650.000000pt" viewBox="0 0 650.000000 650.000000"
 preserveAspectRatio="xMidYMid meet">
<metadata>
Created by potrace 1.14, written by Peter Selinger 2001-2017
</metadata>
<g transform="translate(0.000000,650.000000) scale(0.100000,-0.100000)"
fill="#000000" stroke="none">
<path d="M2930 6385 c-475 -53 -889 -191 -1305 -437 -722 -426 -1264 -1177
-1449 -2008 -57 -260 -70 -382 -70 -690 0 -308 13 -430 70 -690 262 -1176
1179 -2099 2364 -2379 247 -59 405 -75 710 -75 300 0 409 11 660 64 847 181
1593 713 2038 1453 389 648 532 1407 407 2153 -167 993 -799 1844 -1705 2294
-453 226 -916 332 -1430 329 -96 -1 -227 -7 -290 -14z m653 -281 l68 -7 -3
-53 -3 -54 -67 7 -68 6 -1 -54 c-3 -116 -14 -254 -21 -251 -5 1 -36 2 -69 2
l-61 0 5 33 c4 17 9 87 13 155 l7 122 -35 0 c-20 0 -50 3 -67 6 -27 6 -31 11
-31 39 0 69 -1 68 139 61 69 -3 157 -9 194 -12z m-664 -184 c48 -85 95 -169
106 -187 10 -18 16 -36 12 -40 -4 -4 -37 -9 -72 -11 -54 -4 -65 -2 -65 11 0
33 -30 49 -79 42 -51 -7 -81 -28 -81 -56 0 -10 -6 -21 -12 -25 -11 -7 -138
-34 -138 -30 0 0 18 82 40 181 22 99 40 189 40 201 0 33 24 56 66 64 91 18 88
21 183 -150z m1240 61 c79 -27 148 -54 154 -60 7 -7 5 -23 -8 -51 -19 -42 -24
-46 -40 -31 -18 16 -143 61 -169 61 -21 0 -26 -5 -26 -24 0 -25 32 -42 146
-76 l41 -12 -15 -44 c-8 -24 -17 -44 -21 -44 -4 0 -45 16 -91 36 -79 33 -85
34 -97 18 -7 -10 -13 -28 -13 -40 0 -18 12 -25 84 -48 46 -14 89 -26 94 -26
21 0 23 -21 7 -64 l-17 -43 -166 57 c-177 61 -177 61 -152 115 13 28 58 150
80 215 30 92 39 110 52 110 7 0 78 -22 157 -49z m-1895 -74 c9 -23 16 -48 16
-53 0 -6 -25 -19 -55 -29 -30 -9 -55 -20 -55 -24 0 -8 81 -195 103 -238 10
-18 17 -35 17 -38 0 -3 -25 -17 -56 -32 l-56 -26 -19 24 c-10 13 -40 73 -66
132 -26 60 -50 110 -54 113 -4 2 -25 -4 -46 -15 -65 -33 -73 -31 -94 22 l-19
47 43 20 c94 44 312 140 318 140 4 0 14 -19 23 -43z m-608 -369 c15 -15 14
-17 -5 -23 -11 -3 -21 -10 -21 -14 0 -14 -57 -33 -77 -27 -44 14 -95 -44 -69
-80 13 -17 18 -16 94 14 47 19 99 32 124 32 37 0 48 -5 76 -35 54 -59 41 -127
-36 -197 -58 -53 -80 -62 -151 -62 -55 0 -65 3 -81 24 -18 24 -18 24 20 52 33
24 41 27 68 17 52 -18 120 29 108 75 -9 36 -30 38 -109 10 -105 -38 -135 -40
-177 -12 -72 49 -45 149 59 219 41 27 52 30 104 27 35 -3 64 -11 73 -20z
m3481 -86 c71 -51 103 -104 103 -170 0 -64 -12 -71 -67 -41 -41 23 -49 32 -54
64 -6 39 -38 75 -66 75 -30 0 -72 -31 -102 -76 -36 -56 -38 -73 -11 -102 28
-30 62 -36 96 -19 29 15 29 15 63 -34 33 -48 33 -50 15 -64 -10 -7 -38 -19
-62 -26 -60 -17 -115 6 -180 75 -54 57 -69 97 -59 166 10 77 101 172 179 190
39 8 105 -9 145 -38z m-1502 -42 c332 -58 582 -152 855 -322 242 -150 470
-370 641 -618 188 -271 303 -561 354 -892 24 -159 22 -484 -4 -653 -72 -465
-271 -856 -610 -1196 -335 -335 -735 -540 -1221 -625 -137 -24 -181 -28 -380
-28 -224 0 -252 2 -475 44 -812 154 -1504 795 -1701 1578 -58 228 -68 312 -67
567 0 246 13 352 68 559 133 499 471 958 922 1249 272 176 554 285 873 336
170 28 196 29 425 26 146 -3 232 -9 320 -25z m-2473 -323 c20 -19 51 -45 70
-58 18 -13 39 -31 46 -41 7 -10 19 -18 26 -18 8 0 20 -7 27 -16 7 -9 23 -20
36 -25 30 -11 29 -18 -11 -62 -38 -42 -51 -44 -196 -27 -120 14 -151 1 -85
-34 19 -11 35 -22 35 -26 0 -4 25 -20 55 -35 30 -16 55 -33 55 -39 0 -18 -60
-86 -75 -86 -7 0 -31 15 -52 33 -22 17 -57 46 -78 62 -21 17 -50 39 -64 51
-14 11 -47 35 -73 53 -27 17 -48 39 -48 47 0 8 5 12 10 9 6 -3 10 -1 10 4 0 6
10 22 22 36 20 23 28 25 107 25 47 0 103 -5 125 -11 30 -8 42 -8 52 3 11 11 0
22 -69 68 -45 30 -83 62 -85 70 -1 8 14 32 33 53 l35 38 28 -20 c15 -11 43
-35 64 -54z m4437 -124 c61 -44 104 -113 109 -178 6 -72 -26 -127 -101 -177
-93 -62 -165 -63 -236 -1 -69 58 -95 108 -96 178 0 70 24 116 82 161 81 61
172 68 242 17z m-4924 -433 c3 -5 11 -8 18 -6 7 1 9 1 5 -1 -4 -3 -3 -12 3
-21 8 -13 1 -36 -29 -97 -42 -84 -41 -105 3 -105 18 0 28 13 54 75 17 41 31
78 31 83 0 5 7 9 15 9 8 0 15 -4 15 -9 0 -4 3 -7 8 -6 4 2 17 -4 30 -13 l22
-16 -32 -61 c-17 -34 -35 -62 -40 -62 -19 0 -6 -40 19 -60 38 -29 52 -22 72
35 45 126 61 146 99 129 9 -4 23 -6 30 -5 17 3 15 -26 -7 -73 -10 -23 -31 -71
-47 -108 -16 -38 -32 -68 -36 -68 -4 0 -5 -6 -2 -13 3 -8 -4 -24 -14 -38 -19
-22 -22 -23 -48 -9 -16 8 -31 17 -34 20 -11 13 -126 63 -138 61 -8 -1 -20 3
-29 10 -8 7 -24 14 -35 16 -10 2 -33 11 -51 20 -18 9 -35 17 -39 18 -14 0 -22
16 -11 23 6 4 27 45 46 92 70 169 80 190 98 190 10 0 20 -4 24 -10z m5293
-165 c13 -29 21 -58 18 -64 -4 -5 -23 -15 -44 -22 -36 -12 -223 -89 -231 -95
-2 -2 15 -42 37 -89 23 -48 42 -88 42 -90 0 -8 -71 -35 -90 -35 -19 0 -23 6
-95 174 l-48 110 23 18 c12 10 30 18 39 18 10 0 20 3 24 6 11 11 271 123 287
123 9 0 25 -22 38 -54z m-5318 -511 c42 -10 79 -38 104 -77 22 -33 24 -91 6
-211 l-12 -88 -57 5 c-54 5 -172 26 -259 47 -23 5 -53 10 -67 10 -28 0 -29 7
-14 65 6 22 15 69 20 104 9 69 43 130 82 149 24 12 140 9 197 -4z m5497 -76
c0 -7 3 -37 7 -65 6 -41 5 -53 -6 -53 -25 0 -280 -39 -285 -43 -2 -3 3 -42 11
-87 9 -45 16 -88 16 -95 0 -11 -98 -30 -108 -21 -4 5 -52 282 -52 303 0 15 17
20 115 33 44 6 116 17 160 24 108 18 142 19 142 4z m-5410 -573 c-4 -8 -2 -40
3 -72 4 -32 11 -97 14 -144 l6 -87 -118 -1 c-64 0 -126 -3 -137 -5 -11 -2 -52
-7 -91 -11 l-72 -7 -1 61 -1 61 118 2 c207 3 196 0 193 50 -6 86 -8 104 -13
118 -16 40 -7 50 50 50 43 0 53 -3 49 -15z m5288 -71 c94 -14 170 -26 171 -27
3 -5 -32 -273 -41 -312 -4 -17 -11 -20 -50 -17 -53 5 -53 4 -29 130 17 92 12
109 -29 98 -21 -5 -25 -13 -31 -67 -3 -34 -6 -76 -6 -93 l0 -31 -50 3 c-27 2
-50 6 -50 8 0 2 7 45 16 95 17 101 14 109 -37 109 -26 0 -26 -1 -33 -95 -3
-52 -9 -100 -11 -107 -8 -21 -105 -11 -105 10 0 10 10 88 22 176 l22 158 35
-6 c20 -3 113 -18 206 -32z m-5208 -572 c57 -41 93 -190 63 -263 -16 -37 -71
-74 -152 -100 -98 -31 -133 -24 -191 36 -52 53 -70 109 -65 194 3 61 7 74 33
102 43 44 80 61 149 66 34 3 62 6 64 8 5 5 72 -25 99 -43z m5060 -35 c85 -32
144 -96 159 -172 9 -51 -29 -154 -77 -209 -37 -41 -45 -46 -84 -46 -24 0 -46
3 -48 8 -3 4 2 28 9 53 10 32 25 55 54 78 47 38 53 75 17 116 -27 32 -121 66
-151 56 -33 -12 -66 -69 -66 -112 0 -21 4 -40 9 -44 13 -7 41 22 41 43 0 37
14 43 58 26 37 -15 41 -20 35 -43 -3 -14 -14 -42 -24 -61 -9 -20 -20 -52 -24
-72 -8 -40 -8 -40 -82 -7 -24 10 -48 19 -53 19 -6 0 -22 11 -35 25 -21 20 -25
34 -25 84 0 109 60 223 134 256 38 17 110 17 153 2z m-4837 -536 c0 -5 17 -18
39 -29 49 -26 83 -60 117 -118 24 -40 26 -53 21 -111 -4 -59 -9 -69 -43 -105
-53 -55 -105 -78 -182 -78 -62 0 -64 1 -110 48 -69 68 -103 134 -98 188 4 58
21 79 48 60 34 -24 51 -56 54 -103 3 -50 14 -67 57 -89 40 -21 75 -11 130 39
67 60 71 90 18 145 -42 43 -77 54 -88 26 -3 -8 4 -25 16 -38 l21 -22 -20 -22
c-12 -12 -25 -22 -30 -22 -11 0 -103 106 -111 128 -4 12 8 28 41 54 27 21 53
38 59 38 6 0 11 5 11 10 0 6 11 10 25 10 14 0 25 -4 25 -9z m4528 -111 c76
-56 148 -109 162 -119 22 -16 23 -20 10 -38 -102 -141 -183 -249 -189 -251 -3
-1 -22 11 -41 27 l-35 28 63 81 c34 44 62 85 62 91 0 9 -31 31 -44 31 -2 0
-30 -36 -61 -80 l-57 -80 -28 20 c-16 12 -32 25 -35 30 -3 5 19 40 49 77 31
37 56 73 56 80 0 12 -37 43 -52 43 -3 0 -32 -37 -64 -82 -32 -46 -59 -85 -61
-87 -3 -5 -83 47 -83 54 0 3 28 42 63 88 34 45 79 106 100 135 20 28 40 52 43
52 3 0 67 -45 142 -100z m-688 -645 c45 -24 80 -76 80 -121 0 -79 -59 -134
-144 -134 -57 0 -110 42 -128 102 -11 36 -9 45 11 82 38 73 117 104 181 71z
m-3055 -26 c19 -17 40 -48 46 -69 10 -32 9 -44 -7 -76 -38 -77 -123 -105 -191
-63 -42 26 -63 66 -63 118 0 33 7 47 38 81 36 37 43 40 90 40 43 0 57 -5 87
-31z m862 -303 c5 -4 -34 -146 -86 -316 -8 -27 -7 -27 -68 -15 -30 5 -43 13
-43 24 0 9 15 60 33 114 18 53 31 97 29 97 -2 0 -11 -4 -20 -9 -9 -4 -34 -11
-54 -14 -31 -5 -38 -3 -38 11 0 32 38 82 63 82 13 0 44 11 68 23 34 18 52 22
77 16 19 -4 36 -10 39 -13z m1279 -50 c27 -27 34 -42 34 -73 0 -42 -14 -67
-69 -127 -34 -36 -34 -38 -11 -32 120 35 123 34 134 -27 5 -27 3 -38 -6 -41
-13 -3 -209 -43 -262 -53 -28 -6 -29 -5 -23 30 8 51 31 94 82 157 52 64 61 85
45 105 -20 24 -39 17 -61 -19 -13 -23 -30 -36 -51 -40 -53 -11 -58 -8 -58 29
0 66 80 123 174 125 30 0 45 -7 72 -34z m-924 -16 c45 -13 95 -68 104 -115 8
-46 -11 -142 -34 -175 -48 -64 -117 -85 -187 -56 -33 14 -78 71 -72 91 6 17
90 5 105 -16 7 -10 18 -19 24 -19 18 0 48 32 48 51 0 15 -5 16 -32 8 -45 -13
-97 15 -121 63 -23 46 -16 86 21 129 40 48 76 58 144 39z m468 -33 c56 -37 75
-81 75 -167 0 -94 -20 -134 -78 -161 -50 -22 -86 -24 -132 -5 -36 15 -71 59
-60 76 10 16 83 12 111 -7 22 -14 27 -14 39 -2 16 17 31 69 19 69 -5 0 -18 -7
-28 -15 -45 -34 -121 -5 -146 55 -17 41 -7 106 21 136 43 46 128 56 179 21z"/>
<path d="M2766 5933 c-3 -16 -8 -50 -12 -77 l-7 -48 44 7 c24 4 45 8 47 10 4
3 -56 135 -62 135 -2 0 -7 -12 -10 -27z"/>
<path d="M4325 4746 c-201 -108 -440 -241 -515 -286 l-35 -21 50 5 c28 3 67 8
88 12 31 6 36 4 31 -9 -4 -12 -215 -186 -301 -250 -9 -7 -17 1 -28 26 -16 38
-49 67 -75 67 -9 0 -43 -30 -75 -66 -46 -52 -62 -64 -79 -60 -11 4 -55 11 -96
17 -41 6 -79 15 -85 20 -5 6 -19 38 -30 71 -16 51 -25 63 -48 71 -46 15 -75 2
-86 -41 -6 -20 -11 -52 -11 -70 0 -40 -12 -46 -134 -63 l-90 -13 -51 57 c-55
62 -81 70 -124 41 -22 -16 -23 -21 -17 -83 l7 -67 -83 -37 c-46 -20 -91 -37
-100 -37 -9 0 -43 18 -74 40 -63 44 -79 47 -112 24 -43 -30 -44 -47 -10 -114
l32 -62 -52 -50 -53 -50 -52 8 c-29 4 -74 8 -101 8 -46 1 -51 -2 -69 -32 -24
-41 -17 -59 43 -104 25 -19 46 -41 48 -49 1 -9 -12 -38 -30 -64 l-33 -49 -76
-11 c-87 -12 -106 -23 -115 -71 -8 -44 4 -58 74 -84 66 -24 82 -41 82 -88 0
-50 -15 -69 -80 -102 -63 -32 -78 -56 -66 -105 8 -32 28 -42 106 -50 54 -5 69
-11 87 -33 13 -15 26 -42 29 -60 6 -30 2 -39 -40 -81 -52 -53 -58 -80 -21
-116 29 -30 27 -30 107 -5 34 11 67 20 71 20 17 0 127 -114 127 -132 0 -10 -7
-32 -15 -48 -36 -70 -37 -79 -8 -106 34 -32 61 -30 109 6 41 31 64 38 64 18 0
-6 -52 -102 -115 -212 -63 -111 -115 -207 -115 -215 0 -9 13 -3 38 15 67 52
165 115 169 110 9 -9 -100 -158 -336 -461 -39 -49 -71 -94 -71 -98 0 -12 198
132 485 354 61 46 142 107 180 134 81 58 71 68 -30 30 -37 -14 -69 -25 -71
-25 -15 0 3 33 40 74 35 37 49 46 65 41 38 -12 58 5 95 75 41 78 36 76 149 60
103 -15 112 -21 126 -74 12 -49 32 -66 80 -66 33 0 63 31 81 84 l11 34 116 13
115 13 48 -52 c27 -29 53 -52 60 -52 22 0 78 31 84 47 4 9 2 31 -5 50 -6 19
-9 40 -6 47 6 16 181 89 204 84 10 -2 28 -23 41 -48 30 -61 30 -172 -2 -303
l-23 -98 25 -19 c45 -36 89 -42 314 -38 l217 3 51 50 c29 28 55 57 60 66 6 10
0 69 -15 156 -51 298 -53 549 -4 663 22 52 32 160 16 177 -5 4 -60 10 -122 13
-85 4 -118 9 -130 21 -14 14 -14 17 3 32 10 9 49 23 88 31 38 8 90 24 116 35
26 11 93 32 149 47 105 28 159 60 159 94 0 9 10 39 22 66 18 41 21 66 20 148
-1 57 -7 105 -13 110 -12 13 -48 -26 -110 -119 -42 -63 -42 -61 -23 -162 6
-30 4 -33 -20 -33 -14 0 -67 -11 -118 -24 -51 -13 -115 -27 -143 -31 -27 -3
-83 -13 -122 -22 -70 -14 -74 -14 -106 6 -19 12 -48 21 -65 21 -22 0 -45 12
-77 40 -54 46 -93 52 -125 18 -11 -12 -20 -26 -20 -30 0 -5 -33 -25 -73 -44
l-73 -34 -109 15 c-138 19 -193 19 -261 -1 -99 -29 -107 -86 -16 -126 41 -18
62 -20 211 -17 143 3 166 2 166 -11 0 -12 -17 -16 -82 -18 l-82 -3 -11 -37
c-5 -20 -10 -49 -10 -63 0 -41 -28 -112 -59 -150 -16 -19 -53 -48 -82 -64 -48
-26 -66 -30 -156 -33 -78 -3 -115 0 -158 13 -70 22 -146 88 -183 159 l-27 51
0 305 c0 299 0 306 23 348 33 62 95 118 160 143 82 33 259 34 317 2 48 -26
105 -83 148 -149 l32 -49 384 -3 383 -2 50 27 c28 15 55 38 62 52 10 22 6 28
-44 72 -30 27 -72 61 -92 75 l-36 26 -70 -23 -70 -22 -66 58 c-36 31 -66 61
-66 66 0 5 11 27 25 49 14 21 29 56 33 77 6 26 53 95 152 221 78 100 140 185
137 188 -3 3 -55 -20 -116 -50 -61 -31 -111 -51 -111 -44 0 6 106 117 235 245
129 129 235 236 235 238 0 11 -25 -1 -225 -109z m-1208 -448 c6 -7 20 -43 32
-80 13 -38 26 -68 29 -68 4 -1 61 -7 127 -14 65 -8 124 -12 130 -9 5 2 30 29
53 59 67 85 84 70 71 -58 l-4 -38 115 -50 c63 -27 120 -50 126 -50 6 0 36 18
66 39 65 47 103 60 111 37 8 -20 1 -38 -36 -99 l-29 -48 73 -69 c41 -38 84
-72 96 -76 12 -3 49 3 81 14 44 14 64 17 78 9 27 -14 124 -97 124 -106 0 -4
-17 -17 -39 -29 -35 -20 -53 -22 -184 -22 l-146 0 2 28 c2 25 -1 27 -31 24
-27 -2 -33 1 -30 15 2 12 13 18 32 18 33 1 44 18 26 40 -18 21 -56 19 -80 -5
-24 -24 -26 -67 -4 -98 15 -22 14 -22 -25 -22 -32 0 -39 3 -35 15 4 8 3 35 0
60 -8 49 -32 71 -66 60 -17 -5 -20 -16 -20 -71 l0 -64 -31 0 c-25 0 -30 3 -25
17 12 30 -5 103 -26 114 -56 30 -112 -48 -78 -111 7 -13 7 -21 0 -25 -21 -13
-51 8 -84 58 -41 65 -101 119 -163 149 -41 20 -64 23 -158 23 -92 0 -120 -4
-173 -24 -82 -31 -161 -102 -193 -173 -24 -52 -24 -58 -24 -358 l0 -305 26
-56 c71 -150 211 -228 391 -216 181 12 310 130 333 305 l7 53 362 -5 c198 -3
399 -8 446 -13 l85 -8 -3 -40 c-2 -22 -15 -74 -29 -115 -25 -74 -25 -79 -20
-280 5 -189 17 -300 47 -446 12 -56 12 -57 -19 -87 -30 -31 -31 -31 -46 -12
-10 14 -13 33 -9 63 6 40 5 43 -27 56 -22 9 -41 11 -56 5 -13 -5 -43 -6 -67
-3 -26 4 -52 2 -66 -6 -16 -9 -25 -9 -33 -1 -13 13 -66 14 -86 2 -15 -10 -18
-53 -6 -88 5 -17 3 -23 -8 -23 -20 0 -29 30 -25 78 3 33 0 37 -22 40 -43 4
-54 -10 -43 -56 7 -25 7 -46 1 -56 -22 -39 -7 -43 165 -41 90 1 173 -2 183 -6
10 -4 -55 -9 -146 -10 -287 -3 -278 -6 -256 92 49 219 33 336 -56 402 l-27 20
-93 -40 c-51 -22 -108 -46 -127 -53 -31 -13 -33 -15 -26 -49 14 -69 12 -86
-11 -89 -14 -2 -30 8 -48 33 -50 65 -55 66 -196 49 -138 -17 -154 -26 -166
-89 -7 -37 -36 -55 -58 -36 -8 7 -19 31 -25 56 -6 24 -16 47 -21 50 -12 7
-200 37 -245 39 -27 1 -33 -5 -66 -69 -37 -71 -58 -87 -84 -65 -11 9 -15 36
-15 99 l0 86 -97 45 c-53 25 -99 46 -103 48 -3 1 -32 -18 -64 -43 -93 -72
-119 -54 -66 46 l32 60 -84 79 c-46 44 -92 79 -103 80 -11 0 -42 -7 -69 -15
-64 -19 -82 -19 -91 3 -5 12 7 29 45 62 28 25 50 53 50 62 0 10 -17 51 -37 93
l-37 75 -83 0 c-82 0 -83 0 -83 26 0 22 10 29 69 56 59 26 70 34 75 60 9 45 7
141 -3 157 -5 7 -37 21 -72 30 -108 30 -104 72 8 85 97 11 99 13 143 92 22 40
40 79 40 87 0 7 -24 30 -54 51 -61 42 -72 59 -50 77 12 10 32 9 99 0 46 -7 92
-10 102 -7 10 3 45 33 78 66 l60 61 -34 63 c-33 63 -36 96 -8 96 7 0 42 -20
78 -45 35 -25 68 -45 73 -45 5 0 34 12 65 27 31 14 81 36 111 49 60 25 59 21
45 122 -7 48 -6 52 12 52 13 0 37 -21 64 -55 36 -44 50 -54 74 -54 52 0 237
27 246 36 5 5 12 34 16 64 9 80 27 107 50 77z m546 -574 c9 -10 -4 -34 -19
-34 -8 0 -14 6 -14 13 0 22 19 35 33 21z m1089 -97 c-7 -8 -7 -18 -2 -27 28
-43 -4 -180 -41 -180 -21 0 -53 64 -45 94 8 34 89 153 93 138 3 -7 0 -18 -5
-25z m-784 -275 c23 -22 42 -44 42 -50 0 -45 316 -16 576 52 75 19 114 20 114
3 0 -13 -20 -18 -287 -75 -147 -32 -203 -53 -203 -77 0 -7 -7 -21 -16 -29 -13
-14 -48 -16 -222 -16 l-206 0 -39 27 c-38 26 -44 27 -186 29 -142 1 -181 6
-181 25 0 26 57 28 253 13 72 -5 91 -4 105 9 12 11 41 16 95 18 42 1 77 4 77
7 0 3 -6 21 -12 40 -11 30 -11 35 7 48 28 21 37 18 83 -24z m332 -1207 c0 -8
-7 -15 -16 -15 -14 0 -14 3 -4 15 7 8 14 15 16 15 2 0 4 -7 4 -15z"/>
<path d="M3944 3021 c-18 -11 -48 -41 -68 -66 -41 -55 -41 -69 6 -155 46 -83
75 -118 119 -141 22 -11 43 -26 46 -35 5 -13 -31 -92 -68 -151 -12 -20 -11
-25 4 -40 14 -14 38 -19 120 -21 153 -5 203 24 138 79 -24 20 -31 32 -27 47 4
12 -2 34 -15 56 -18 31 -21 48 -16 102 4 53 15 84 61 174 48 95 64 136 54 141
-2 1 -57 5 -123 10 -66 4 -138 11 -160 14 -30 4 -48 1 -71 -14z m266 -76 c0
-16 -45 -109 -79 -165 l-18 -30 -57 95 c-31 53 -54 100 -51 105 4 6 51 10 106
10 82 0 99 -3 99 -15z m-214 -97 c46 -71 71 -158 46 -158 -14 0 -69 65 -77 92
-4 13 -15 32 -25 43 -9 11 -19 27 -22 35 -7 19 8 60 21 60 6 0 31 -33 57 -72z"/>
<path d="M3097 3683 c-4 -3 -7 -19 -7 -35 0 -37 -24 -46 -65 -23 -42 22 -59
14 -43 -21 10 -22 9 -28 -7 -40 -10 -8 -26 -14 -36 -14 -17 0 -32 -23 -22 -34
4 -3 19 -6 35 -6 34 0 46 -22 28 -55 -19 -36 -6 -46 42 -29 48 17 68 13 68
-14 0 -24 19 -42 36 -35 19 7 17 20 -6 43 -22 22 -28 64 -7 58 6 -3 17 -14 22
-27 7 -14 16 -20 28 -17 10 2 36 -2 58 -9 46 -17 58 -5 34 31 -21 33 -5 54 42
54 27 0 34 4 31 18 -2 9 -19 22 -38 28 -39 13 -46 24 -30 54 15 28 -7 36 -46
15 -40 -20 -40 -20 -69 25 -25 39 -35 46 -48 33z m47 -59 c10 -26 7 -44 -9
-44 -17 0 -34 29 -28 48 7 17 30 15 37 -4z m31 -107 c36 -29 46 -57 21 -57
-12 0 -63 31 -99 60 -61 48 -87 74 -87 85 0 16 111 -43 165 -88z m55 72 c-11
-20 -35 -25 -45 -10 -6 12 35 42 47 35 4 -3 3 -14 -2 -25z m27 -55 c5 -15 -20
-24 -37 -14 -7 4 -9 13 -5 19 8 14 37 11 42 -5z m-237 2 c0 -2 -11 -6 -25 -8
-14 -3 -25 -1 -25 3 0 5 11 9 25 9 14 0 25 -2 25 -4z m38 -52 c-3 -19 -34 -41
-43 -32 -9 9 18 48 33 48 7 0 12 -7 10 -16z"/>
<path d="M5444 4848 c-78 -52 -83 -118 -13 -157 23 -13 30 -12 73 9 61 29 101
86 87 122 -12 31 -48 58 -77 58 -12 0 -44 -15 -70 -32z"/>
<path d="M476 3731 c-20 -22 -36 -74 -27 -88 3 -6 24 -13 46 -16 22 -3 66 -10
98 -17 72 -14 87 -5 85 51 -1 22 -5 39 -10 39 -4 0 -8 7 -8 15 0 8 -9 15 -20
15 -11 0 -20 5 -20 10 0 6 -28 10 -63 10 -50 0 -68 -4 -81 -19z"/>
<path d="M652 2480 c-55 -13 -82 -46 -82 -100 0 -25 5 -51 12 -58 17 -17 119
-15 157 4 58 29 74 86 38 135 -15 20 -80 30 -125 19z"/>
<path d="M2971 751 c-24 -45 -3 -86 41 -79 28 4 48 51 32 76 -16 25 -60 27
-73 3z"/>
<path d="M3404 736 c-10 -25 0 -69 19 -80 37 -23 77 43 46 80 -15 18 -58 18
-65 0z"/>
</g>
</svg>
